PathFileType	4	(X/Y/Z)	C:/Users/beibeiliu/ov580/test_trc/capture2\sequence.10_training_dense_right.trc
DataRate	CameraRate	NumFrames	NumMarkers	Units	OrigDataRate	OrigDataStartFrame	OrigNumFrames
120	120	8	19	mm	120	219	349
Frame#	Time	ThumbCMC			ThumbMCP			ThumbIP			ThumbTip			IndexMCP			IndexPIP			IndexTip			MiddleMCP			MiddlePIP			MiddleTip			RingMCP			RingPIP			RingTip			PinkyMCP			PinkyPIP			PinkyTip			BackHand1			BackHand2			BackHand3	
		X0	Y0	Z0	X1	Y1	Z1	X2	Y2	Z2	X3	Y3	Z3	X4	Y4	Z4	X5	Y5	Z5	X6	Y6	Z6	X7	Y7	Z7	X8	Y8	Z8	X9	Y9	Z9	X10	Y10	Z10	X11	Y11	Z11	X12	Y12	Z12	X13	Y13	Z13	X14	Y14	Z14	X15	Y15	Z15	X16	Y16	Z16	X17	Y17	Z17	X18	Y18	Z18	
218	1.81667	150.125	47.6685	-31.1138	119.133	57.3177	-53.6984	100.765	53.3072	-78.5624	91.3922	33.3951	-91.8971	170.471	36.4052	-99.5253	172.648	42.5683	-123.913	178.113	38.0778	-148.469	149.087	12.3873	-108.891	134.945	11.7316	-134.292	121.979	15.9121	-160.112	117.185	13.2693	-96.97	96.346	29.6614	-84.7836	112.937	33.7417	-54.2011	110.365	3.3805	-80.0822	95.0739	23.0038	-62.7312	120.256	29.421	-38.7161	153.361	-12.8397	-52.7618	158.043	-13.2487	-23.6323	170.712	11.1057	-40.8432	
219	1.825	148.306	45.8176	-30.2237	117.507	58.3298	-52.9673	100.344	51.2032	-78.3092	91.0425	29.6525	-90.0802	167.338	32.5418	-99.501	170.699	38.8802	-125.75	177.098	37.5079	-145.354	148.223	9.40025	-109.872	136.395	10.4546	-131.828	124.8	14.219	-157.523	115.724	9.46496	-96.8253	98.6073	29.9938	-84.5065	114.784	33.1818	-54.259	108.4	4.15495	-80.959	97.1982	23.0579	-65.502	116.128	27.6363	-39.2054	150.964	-13.3092	-53.6467	156.51	-12.6243	-23.5836	170.693	13.9325	-37.5111	
220	1.83333	149.575	48.895	-30.9641	117.677	54.8593	-54.727	98.6525	50.98	-76.7484	91.2964	25.059	-90.1045	170.439	36.0358	-101.237	172.791	41.0309	-125.778	179.463	39.9211	-146.475	147.112	7.53176	-109.843	136.873	12.1411	-135.327	122.57	11.4243	-157.24	120.573	8.45183	-95.2299	97.3166	28.5561	-83.8515	114.777	32.1246	-55.1766	109.17	3.02728	-79.7979	95.7121	23.7844	-60.8756	115.958	29.4447	-40.2113	149.912	-14.5602	-53.9374	155.857	-11.9256	-20.8375	169.984	13.4627	-43.3281	
221	1.84167	148.473	48.2693	-32.6628	116.583	57.8105	-52.784	100.397	50.4037	-74.4237	91.7537	24.675	-89.5313	169.387	33.1195	-102.06	170.558	37.8479	-122.63	179.088	40.2201	-144.85	147.649	8.11097	-106.898	138.173	13.8673	-135.425	124.303	13.346	-158.171	119.609	8.02369	-94.3124	97.8959	29.7259	-82.6703	114.901	33.8234	-56.2226	105.742	-0.991951	-79.6	96.9373	22.7108	-65.3875	112.978	25.9116	-37.6373	152.609	-13.9141	-52.0797	156.839	-10.9855	-20.9351	171.846	12.1973	-39.8655	
222	1.85	147.544	46.5942	-33.6337	118.191	54.4081	-51.2141	98.9395	49.7798	-78.5629	90.407	27.1002	-89.0559	168.874	33.5267	-101.967	170.577	36.8197	-125.554	176.788	38.6394	-144.021	148.764	8.92629	-106.271	137.939	12.1628	-134.609	126.317	13.7611	-156.845	117.716	10.7084	-97.054	98.3272	28.7523	-84.2686	115.789	30.985	-53.567	103.973	2.29996	-80.4168	97.3243	24.2131	-62.4626	114.573	29.0088	-40.6033	150.436	-16.2667	-53.1299	155.318	-13.1473	-24.5948	171.196	14.0406	-42.5339	
223	1.85833	147.242	43.0822	-32.6319	117.187	53.1541	-55.4662	101.406	48.5547	-73.2804	90.564	21.9402	-90.58	169.034	33.4688	-99.9532	172.81	39.9687	-122.152	176.224	36.935	-147.498	147.887	9.01595	-109.819	135.378	9.62442	-134.996	124.822	11.9252	-155.984	115.219	9.48253	-97.8137	99.6196	30.854	-83.5094	115.567	30.5678	-52.7069	108.76	-1.59305	-78.9994	98.079	24.7557	-62.7107	117.36	24.4595	-36.8321	152.47	-14.3669	-53.4414	157.204	-14.8491	-24.4361	172.528	11.3749	-39.2727	
224	1.86667	149.477	45.8414	-32.4721	118.683	51.2121	-55.0596	101.569	47.2888	-74.9614	90.6742	25.5105	-88.8861	168.676	32.2165	-101.66	170.625	38.3879	-123.741	177.155	38.0047	-148.212	149.193	8.8659	-108.883	134.727	7.98681	-134.891	125.437	11.9079	-157.977	118.622	6.46807	-94.6501	98.0105	30.2999	-82.9404	116.886	31.7398	-54.5305	106.717	1.43258	-80.228	98.4284	25.0111	-64.0068	115.303	26.7123	-38.7408	149.484	-15.5754	-56.209	153.834	-14.4625	-24.2256	171.525	9.27962	-39.9617	
225	1.875	148.951	46.8642	-34.0762	117.785	55.1793	-52.5786	100.787	48.4284	-76.4093	90.8999	26.1223	-88.5892	168.238	30.8034	-101.764	172.683	41.3631	-124.62	174.533	36.4453	-147.169	147.316	9.29188	-109.743	137.629	12.8203	-134.627	126.008	12.5936	-156.796	115.422	9.79449	-97.5644	100.829	31.1229	-85.5709	111.729	29.8328	-53.0103	108.033	4.65814	-81.4038	94.7269	22.0708	-61.3603	118.691	26.068	-36.5046	150.615	-10.9563	-56.8213	153.3	-15.6214	-24.3546	172.698	11.6905	-39.2235	
